<?xml version="1.0" encoding="utf-8"?>
<!-- Generator: Adobe Illustrator 21.1.0, SVG Export Plug-In . SVG Version: 6.00 Build 0)  -->
<svg version="1.1" id="Layer_1" xmlns="http://www.w3.org/2000/svg" xmlns:xlink="http://www.w3.org/1999/xlink" x="0px" y="0px"
	 viewBox="0 0 90 90" style="enable-background:new 0 0 90 90;" xml:space="preserve">
<g>
	<path d="M75.5,0h-61C6.5,0,0,6.5,0,14.5v61C0,83.5,6.5,90,14.5,90h61c8,0,14.5-6.5,14.5-14.5v-61C90,6.5,83.5,0,75.5,0z M86,75.5
		C86,81.3,81.3,86,75.5,86H47V64h-4v22H14.5C8.7,86,4,81.3,4,75.5v-61C4,8.7,8.7,4,14.5,4h61C81.3,4,86,8.7,86,14.5V75.5z"/>
	<path d="M45,10.1c-12.8,0-23.8,8-28.2,19.3l-0.5,1.2L32.7,47h24.5l0.6-0.6l15.8-15.8l-0.5-1.2C68.8,18.1,57.8,10.1,45,10.1z
		 M55.6,43H34.4L21.1,29.7c4.1-9.2,13.3-15.6,24-15.6c10.7,0,19.9,6.4,23.9,15.6L55.6,43z"/>
	<path d="M35.2,41H38h16.8L45,14.2L35.2,41z M49.1,37h-8.2L45,25.8L49.1,37z"/>
</g>
</svg>
