<?xml version="1.0" encoding="utf-8"?>
<!-- Generator: Adobe Illustrator 21.1.0, SVG Export Plug-In . SVG Version: 6.00 Build 0)  -->
<svg version="1.1" id="Layer_1" xmlns="http://www.w3.org/2000/svg" xmlns:xlink="http://www.w3.org/1999/xlink" x="0px" y="0px"
	 viewBox="0 0 734.7 665.1" style="enable-background:new 0 0 734.7 665.1;" xml:space="preserve">
<path d="M597.4,151.7C572,120,533.5,93.9,476.8,93.9c-38,0-71.4,12.5-100.5,36.7c-2.3,1.9-4.6,3.9-6.7,6c-0.6,0.6-1.2,1-1.8,1.1
	L272,234.3l-5.1-5l95-95.7c-1.1-1-2.3-2-3.4-2.9c-29.1-24.3-62.5-36.7-100.6-36.7c-56.7,0-95.2,26.1-120.6,57.8
	c-26.1,32.4-36.8,69.8-32.7,111.3c3.4,35.5,17.9,66.2,42.9,91.7c18.1,18.3,99.8,98.7,122.2,120.9c29.7,29.4,59.4,58.9,89.1,88.4
	c1.9,1.9,4,3.8,5.8,5.9c1,1.1,1.9,1.7,2.7,1.6c0.9,0.1,1.7-0.4,2.7-1.6c1.8-2.1,3.9-3.9,5.8-5.9c29.7-29.5,59.4-58.9,89.1-88.4
	c22.4-22.3,104.1-102.6,122.2-120.9c25.1-25.4,39.5-56.1,43-91.7C634.3,221.5,623.4,184.1,597.4,151.7z"/>
</svg>
