<?xml version="1.0" encoding="utf-8"?>
<!-- Generator: Adobe Illustrator 21.0.0, SVG Export Plug-In . SVG Version: 6.00 Build 0)  -->
<svg version="1.1" id="Layer_1" xmlns="http://www.w3.org/2000/svg" xmlns:xlink="http://www.w3.org/1999/xlink" x="0px" y="0px"
	 viewBox="0 0 749.7 680.1" style="enable-background:new 0 0 749.7 680.1;" xml:space="preserve">
<path d="M701.2,83.3c-20.1-25.1-43.7-44.8-70-58.7C600.3,8.3,565.4,0,527.4,0c-54,0-102.8,17.8-144.9,52.9c-2.4,2-5,4.2-7.7,6.8
	c-2.7-2.5-5.3-4.8-7.7-6.8C325.1,17.8,276.3,0,222.3,0c-38,0-72.9,8.3-103.9,24.6c-26.3,13.9-49.8,33.6-70,58.7
	C11.2,129.7-4.7,183.7,1.2,243.7c5,51.1,25.9,95.6,62,132.3c17.5,17.8,78.8,78.3,123.6,122.4c19.9,19.6,37.1,36.6,46.6,46
	c30,29.7,59.9,59.4,89.8,89l34.4,34.1c0.8,0.8,1.6,1.6,2.4,2.3c1.9,1.9,3.7,3.6,5.3,5.4c2.8,3.1,5.9,4.7,9.2,4.7c0.1,0,0.3,0,0.4,0
	c3.3,0,6.4-1.6,9.2-4.7c1.6-1.8,3.4-3.6,5.3-5.4c0.8-0.8,1.6-1.6,2.4-2.3l34-33.7c30.1-29.8,60.1-59.6,90.2-89.4
	c9.5-9.4,26.7-26.4,46.7-46.1c44.7-44.1,106-104.6,123.6-122.3c36.1-36.6,57-81.1,62-132.3C754.4,183.7,738.5,129.7,701.2,83.3z
	 M733.6,242.3c-4.7,47.6-24.1,89.1-57.7,123.2c-17.5,17.7-78.7,78.1-123.4,122.2c-20,19.7-37.2,36.7-46.7,46.1
	c-30.1,29.8-60.1,59.6-90.2,89.4l-34,33.7c-0.8,0.7-1.5,1.5-2.3,2.2c-1.4,1.4-2.9,2.8-4.3,4.3c-1.4-1.5-2.9-2.9-4.3-4.3
	c-0.8-0.7-1.5-1.5-2.3-2.2l-34.4-34.1c-29.9-29.7-59.9-59.4-89.8-89c-9.5-9.4-26.7-26.4-46.7-46.1c-44.7-44.1-106-104.6-123.5-122.3
	c-33.6-34.1-53.1-75.6-57.7-123.2c-5.5-56,9.3-106.4,44.1-149.6C101.5,41.1,156.1,15,222.3,15c50.4,0,95.9,16.6,135.2,49.5
	c2.1,1.7,4.4,3.7,6.7,5.8L236.7,197.8c-2.9,2.9-2.9,7.7,0,10.6c1.5,1.5,3.4,2.2,5.3,2.2s3.8-0.7,5.3-2.2L383.9,71.8
	c0.1-0.1,0.1-0.2,0.2-0.2c2.7-2.6,5.5-5,8-7.1C431.5,31.6,477,15,527.4,15c66.2,0,120.8,26.1,162.1,77.6
	C724.2,135.9,739,186.2,733.6,242.3z"/>
</svg>
